<svg xmlns="http://www.w3.org/2000/svg" width="45.954" height="46.004" viewBox="0 0 45.954 46.004"><defs><style>.a{fill:#4bc076;}.b{fill:#fff;}</style></defs><g transform="translate(0 0)"><rect class="a" width="45.955" height="46.005" rx="4"/><path class="b" d="M15.055,23H2.377A2.342,2.342,0,0,1,0,20.7V7.667a2.342,2.342,0,0,1,2.377-2.3H15.055a2.342,2.342,0,0,1,2.377,2.3V20.7A2.342,2.342,0,0,1,15.055,23ZM7.923,16.868a.781.781,0,0,0-.792.766V18.4a.781.781,0,0,0,.792.766h5.546a.781.781,0,0,0,.792-.766v-.768a.781.781,0,0,0-.792-.766Zm-3.961,0a.781.781,0,0,0-.792.766V18.4a.781.781,0,0,0,.792.766h.792a.781.781,0,0,0,.792-.766v-.768a.781.781,0,0,0-.792-.766Zm3.961-3.833a.781.781,0,0,0-.792.766v.768a.781.781,0,0,0,.792.766h5.546a.781.781,0,0,0,.792-.766V13.8a.781.781,0,0,0-.792-.766Zm-3.961,0a.781.781,0,0,0-.792.766v.768a.781.781,0,0,0,.792.766h.792a.781.781,0,0,0,.792-.766V13.8a.781.781,0,0,0-.792-.766ZM7.923,9.2a.781.781,0,0,0-.792.766v.766a.781.781,0,0,0,.792.768h5.546a.781.781,0,0,0,.792-.768V9.968a.781.781,0,0,0-.792-.766Zm-3.961,0a.781.781,0,0,0-.792.766v.766a.781.781,0,0,0,.792.768h.792a.781.781,0,0,0,.792-.768V9.968A.781.781,0,0,0,4.754,9.2ZM20.2,17.634a.39.39,0,0,1-.4-.383V5.368a2.342,2.342,0,0,0-2.377-2.3H5.943a.391.391,0,0,1-.4-.384V2.3A2.342,2.342,0,0,1,7.923,0H20.6a2.342,2.342,0,0,1,2.377,2.3V14.951A2.733,2.733,0,0,1,20.2,17.634Z" transform="translate(11.489 11.501)"/></g></svg>