<svg xmlns="http://www.w3.org/2000/svg" width="16" height="14.222" viewBox="0 0 16 14.222"><defs><style>.a{fill:#2699fb;}</style></defs><path class="a" d="M14.45,14.222H1.615C.9,14.222,0,14.222,0,12.694V4c0-.727,0-1.632,1.615-1.632H3.206l.183,0H3.4l.136,0a.626.626,0,0,0,.632-.306L4.933.9A1.567,1.567,0,0,1,6.367,0H9.634a1.491,1.491,0,0,1,1.4.9L11.8,2.066a.743.743,0,0,0,.7.306l.146,0h.008l.184,0H14.45C16,2.368,16,3.273,16,4v8.695C16,13.41,16,14.222,14.45,14.222ZM8,4.019A3.962,3.962,0,0,0,4,7.933a4,4,0,0,0,8,0A3.962,3.962,0,0,0,8,4.019Zm0,6.26a2.348,2.348,0,1,1,2.4-2.347A2.377,2.377,0,0,1,8,10.28Z"/></svg>