<svg xmlns="http://www.w3.org/2000/svg" xmlns:xlink="http://www.w3.org/1999/xlink" width="45.954" height="45.955" viewBox="0 0 45.954 45.955"><defs><style>.a{fill:#34becd;}.b{fill:none;}.c{clip-path:url(#a);}.d{clip-path:url(#b);}.e{fill:#fff;}</style><clipPath id="a"><rect class="b" width="45.955" height="45.955"/></clipPath><clipPath id="b"><rect class="a" width="45.955" height="45.955" rx="4"/></clipPath></defs><g class="c" transform="translate(0 0)"><rect class="a" width="45.955" height="45.955" rx="4"/><g class="d"><g transform="translate(12.765 12.765)"><path class="e" d="M20.424,5.383v.953a2.048,2.048,0,0,1-2.042,2.042H2.042A2.048,2.048,0,0,1,0,6.336V5.383C0,2.9,2.893,1.4,5.617.209A1.019,1.019,0,0,0,5.889.073a.632.632,0,0,1,.647.034A6.68,6.68,0,0,0,10.212,1.23,6.937,6.937,0,0,0,13.888.141a.632.632,0,0,1,.647-.034,1.019,1.019,0,0,1,.272.136C17.531,1.4,20.424,2.9,20.424,5.383" transform="translate(0 12.046)"/><path class="e" d="M5.072,0a5.365,5.365,0,0,1,5.072,5.617,5.365,5.365,0,0,1-5.072,5.617A5.365,5.365,0,0,1,0,5.617,5.365,5.365,0,0,1,5.072,0" transform="translate(5.14)"/></g></g></g></svg>