<svg xmlns="http://www.w3.org/2000/svg" width="46.48" height="47.391" viewBox="0 0 46.48 47.391"><defs><style>.a{fill:rgba(0,0,0,0);}.b{fill:#f88962;}.c{fill:#fff;}</style></defs><g transform="translate(0 0)"><rect class="a" width="46.48" height="47.391"/><rect class="b" width="46.48" height="46.48" rx="4" transform="translate(0 0.058)"/><g transform="translate(11.038 11.848)"><ellipse class="c" cx="3.572" cy="3.572" rx="3.572" ry="3.572" transform="translate(8.344)"/><path class="c" d="M23.028,0H.8A.773.773,0,0,0,.368,1.429l5.794,3.73a.773.773,0,0,1,.317.873L4.3,13.295a.818.818,0,0,0,1.389.754L11.321,8.1a.8.8,0,0,1,1.191,0l5.635,5.953a.823.823,0,0,0,1.389-.754L17.353,6.032a.835.835,0,0,1,.317-.873l5.794-3.73A.773.773,0,0,0,23.028,0Z" transform="translate(0 9.525)"/></g></g></svg>