<svg xmlns="http://www.w3.org/2000/svg" width="7.504" height="8.87" viewBox="0 0 7.504 8.87"><defs><style>.a{fill:#2699fb;fill-rule:evenodd;}</style></defs><g transform="translate(1 -45.099)"><path class="a" d="M15.824,7.1a.648.648,0,0,1,.258.053.661.661,0,0,1,.308.24.622.622,0,0,1,.114.363v7.557a.622.622,0,0,1-.114.363.683.683,0,0,1-.566.287.7.7,0,0,1-.487-.188L12.752,13.29l-2.585,2.486a.7.7,0,0,1-.487.193.648.648,0,0,1-.258-.053.661.661,0,0,1-.308-.24A.622.622,0,0,1,9,15.313V7.756a.622.622,0,0,1,.114-.363.661.661,0,0,1,.308-.24A.648.648,0,0,1,9.68,7.1Z" transform="translate(-10 38)"/></g></svg>