<svg xmlns="http://www.w3.org/2000/svg" width="46.48" height="47.391" viewBox="0 0 46.48 47.391"><defs><style>.a{fill:rgba(0,0,0,0);}.b{fill:#f88962;}.c{fill:#fff;}</style></defs><g transform="translate(0 0)"><rect class="a" width="46.48" height="47.391"/><rect class="b" width="46.48" height="46.48" rx="4" transform="translate(0 0.058)"/><g transform="translate(8.339 13.959)"><path class="c" d="M24.448,18.118H14.954a.434.434,0,0,1-.459-.458.5.5,0,0,1,.091-.275l6.468-7.89a.912.912,0,0,0,0-.963L14.541.734a.658.658,0,0,1-.092-.275A.46.46,0,0,1,14.908,0H24.4a.691.691,0,0,1,.642.321L31.88,8.577a.914.914,0,0,1,0,.964L25.09,17.8A.877.877,0,0,1,24.448,18.118ZM10,18.118H.5a.434.434,0,0,1-.459-.458.282.282,0,0,1,.046-.275L6.6,9.495a.912.912,0,0,0,0-.963L.092.734A.658.658,0,0,1,0,.459.46.46,0,0,1,.459,0H9.953A.691.691,0,0,1,10.6.321l6.835,8.256a.914.914,0,0,1,0,.964L10.642,17.8A.877.877,0,0,1,10,18.118Z"/></g></g></svg>