<svg xmlns="http://www.w3.org/2000/svg" width="95.499" height="83.562" viewBox="0 0 95.499 83.562"><defs><style>.a{fill:#f88962;}</style></defs><path class="a" d="M73.116,83.561H22.382a8.963,8.963,0,0,1-8.953-8.953v-.15a2.946,2.946,0,0,1,2.834-2.834H79.233a2.947,2.947,0,0,1,2.836,2.834v.15A8.963,8.963,0,0,1,73.116,83.561Zm6.418-20.89H15.967a2.778,2.778,0,0,1-2.836-2.387L8.953,28.351A8.953,8.953,0,1,1,17.906,19.4a9.074,9.074,0,0,1-3.135,6.864,15.485,15.485,0,0,0,5.546,6.866,15.191,15.191,0,0,0,8.671,2.716c.332,0,.67-.011,1-.033A15.769,15.769,0,0,0,44.765,21.038a15.058,15.058,0,0,0-.3-3.729A9.142,9.142,0,0,1,38.8,8.953a8.953,8.953,0,1,1,12.236,8.356,15.058,15.058,0,0,0-.3,3.729A15.769,15.769,0,0,0,65.5,35.812c.237.01.477.016.713.016a15.649,15.649,0,0,0,8.793-2.677,16,16,0,0,0,5.714-6.889A9.081,9.081,0,0,1,77.593,19.4a8.953,8.953,0,1,1,8.953,8.953L82.367,60.284A3.021,3.021,0,0,1,79.534,62.671Z"/></svg>