<svg xmlns="http://www.w3.org/2000/svg" xmlns:xlink="http://www.w3.org/1999/xlink" width="20.195" height="16.712" viewBox="0 0 20.195 16.712"><defs><style>.a{fill:#fff;}.b{clip-path:url(#a);}</style><clipPath id="a"><path class="a" d="M20.193,16.712H11.141V8.565c0-.008.069-.766.766-.766H19.5a.7.7,0,0,1,.468.224.942.942,0,0,1,.228.716v7.973ZM17.06,13.2a.7.7,0,0,0-.7.7v.7a.7.7,0,0,0,.7.7h.7a.7.7,0,0,0,.7-.7v-.7a.7.7,0,0,0-.7-.7Zm-3.481,0a.7.7,0,0,0-.7.7v.7a.7.7,0,0,0,.7.7h.7a.7.7,0,0,0,.7-.7v-.7a.7.7,0,0,0-.7-.7ZM17.06,9.644a.7.7,0,0,0-.7.7v.7a.7.7,0,0,0,.7.7h.7a.7.7,0,0,0,.7-.7v-.7a.7.7,0,0,0-.7-.7Zm-3.481,0a.7.7,0,0,0-.7.7v.7a.7.7,0,0,0,.7.7h.7a.7.7,0,0,0,.7-.7v-.7a.7.7,0,0,0-.7-.7ZM9.052,16.712H0V.766C0,.758.069,0,.766,0H12.534A.7.7,0,0,1,13,.224.94.94,0,0,1,13.23.94V4.978c0,.256-.549.624-.659.7H9.818c-.758,0-.766.827-.766.835v10.2ZM6.267,12.847a.7.7,0,0,0-.7.7v.7a.7.7,0,0,0,.7.7h.7a.7.7,0,0,0,.7-.7v-.7a.7.7,0,0,0-.7-.7Zm-3.83,0a.7.7,0,0,0-.7.7v.7a.7.7,0,0,0,.7.7h.7a.7.7,0,0,0,.7-.7v-.7a.7.7,0,0,0-.7-.7Zm3.83-3.586a.7.7,0,0,0-.7.7v.7a.7.7,0,0,0,.7.7h.7a.7.7,0,0,0,.7-.7v-.7a.7.7,0,0,0-.7-.7Zm-3.83,0a.7.7,0,0,0-.7.7v.7a.7.7,0,0,0,.7.7h.7a.7.7,0,0,0,.7-.7v-.7a.7.7,0,0,0-.7-.7ZM6.267,5.71a.7.7,0,0,0-.7.7v.7a.7.7,0,0,0,.7.7h.7a.7.7,0,0,0,.7-.7v-.7a.7.7,0,0,0-.7-.7Zm-3.83,0a.7.7,0,0,0-.7.7v.7a.7.7,0,0,0,.7.7h.7a.7.7,0,0,0,.7-.7v-.7a.7.7,0,0,0-.7-.7ZM10.1,2.158a.7.7,0,0,0-.7.7v.7a.7.7,0,0,0,.7.7h.7a.7.7,0,0,0,.7-.7v-.7a.7.7,0,0,0-.7-.7Zm-3.83,0a.7.7,0,0,0-.7.7v.7a.7.7,0,0,0,.7.7h.7a.7.7,0,0,0,.7-.7v-.7a.7.7,0,0,0-.7-.7Zm-3.83,0a.7.7,0,0,0-.7.7v.7a.7.7,0,0,0,.7.7h.7a.7.7,0,0,0,.7-.7v-.7a.7.7,0,0,0-.7-.7Z"/></clipPath></defs><g transform="translate(0 0)"><path class="a" d="M20.193,16.712H11.141V8.565c0-.008.069-.766.766-.766H19.5a.7.7,0,0,1,.468.224.942.942,0,0,1,.228.716v7.973ZM17.06,13.2a.7.7,0,0,0-.7.7v.7a.7.7,0,0,0,.7.7h.7a.7.7,0,0,0,.7-.7v-.7a.7.7,0,0,0-.7-.7Zm-3.481,0a.7.7,0,0,0-.7.7v.7a.7.7,0,0,0,.7.7h.7a.7.7,0,0,0,.7-.7v-.7a.7.7,0,0,0-.7-.7ZM17.06,9.644a.7.7,0,0,0-.7.7v.7a.7.7,0,0,0,.7.7h.7a.7.7,0,0,0,.7-.7v-.7a.7.7,0,0,0-.7-.7Zm-3.481,0a.7.7,0,0,0-.7.7v.7a.7.7,0,0,0,.7.7h.7a.7.7,0,0,0,.7-.7v-.7a.7.7,0,0,0-.7-.7ZM9.052,16.712H0V.766C0,.758.069,0,.766,0H12.534A.7.7,0,0,1,13,.224.94.94,0,0,1,13.23.94V4.978c0,.256-.549.624-.659.7H9.818c-.758,0-.766.827-.766.835v10.2ZM6.267,12.847a.7.7,0,0,0-.7.7v.7a.7.7,0,0,0,.7.7h.7a.7.7,0,0,0,.7-.7v-.7a.7.7,0,0,0-.7-.7Zm-3.83,0a.7.7,0,0,0-.7.7v.7a.7.7,0,0,0,.7.7h.7a.7.7,0,0,0,.7-.7v-.7a.7.7,0,0,0-.7-.7Zm3.83-3.586a.7.7,0,0,0-.7.7v.7a.7.7,0,0,0,.7.7h.7a.7.7,0,0,0,.7-.7v-.7a.7.7,0,0,0-.7-.7Zm-3.83,0a.7.7,0,0,0-.7.7v.7a.7.7,0,0,0,.7.7h.7a.7.7,0,0,0,.7-.7v-.7a.7.7,0,0,0-.7-.7ZM6.267,5.71a.7.7,0,0,0-.7.7v.7a.7.7,0,0,0,.7.7h.7a.7.7,0,0,0,.7-.7v-.7a.7.7,0,0,0-.7-.7Zm-3.83,0a.7.7,0,0,0-.7.7v.7a.7.7,0,0,0,.7.7h.7a.7.7,0,0,0,.7-.7v-.7a.7.7,0,0,0-.7-.7ZM10.1,2.158a.7.7,0,0,0-.7.7v.7a.7.7,0,0,0,.7.7h.7a.7.7,0,0,0,.7-.7v-.7a.7.7,0,0,0-.7-.7Zm-3.83,0a.7.7,0,0,0-.7.7v.7a.7.7,0,0,0,.7.7h.7a.7.7,0,0,0,.7-.7v-.7a.7.7,0,0,0-.7-.7Zm-3.83,0a.7.7,0,0,0-.7.7v.7a.7.7,0,0,0,.7.7h.7a.7.7,0,0,0,.7-.7v-.7a.7.7,0,0,0-.7-.7Z" transform="translate(0 0)"/></g></svg>