<svg xmlns="http://www.w3.org/2000/svg" width="75.86" height="81.351" viewBox="0 0 75.86 81.351"><defs><style>.a{fill:#4bc076;}</style></defs><path class="a" d="M37.291,81.351a40.076,40.076,0,0,1-4.105-.219A37.333,37.333,0,0,1,27.409,8.068a2.117,2.117,0,0,1,.668-.108,2.678,2.678,0,0,1,2.56,2.657V52.246a3.47,3.47,0,0,0,3.486,3.446,3.579,3.579,0,0,0,1.611-.387l34.833-19.2a2.615,2.615,0,0,1,1.267-.334A2.5,2.5,0,0,1,74.3,37.8a37.411,37.411,0,0,1-37.01,43.545v0Zm2.054-37.193a1.881,1.881,0,0,1-1.911-1.935V3.822A3.792,3.792,0,0,1,42.021.084,51.422,51.422,0,0,1,75.153,20.473a3.824,3.824,0,0,1-1.359,5.607L40.321,43.921A2.164,2.164,0,0,1,39.345,44.158Z" transform="translate(0 0)"/></svg>