<svg xmlns="http://www.w3.org/2000/svg" width="16.571" height="9.206" viewBox="0 0 16.571 9.206"><defs><style>.a{fill:#2699fb;fill-rule:evenodd;}</style></defs><g transform="translate(65 12.746)"><path class="a" d="M6.481,15.587H4.222a.455.455,0,0,1-.367-.734l1.352-1.805a2.261,2.261,0,0,0-.985-.223A2.216,2.216,0,0,0,2.6,13.5a2.292,2.292,0,0,0,0,3.251,2.216,2.216,0,0,0,1.625.676,2.23,2.23,0,0,0,1.46-.521,2.257,2.257,0,0,0,.8-1.32Zm-1.338-.921H6.481A2.253,2.253,0,0,0,5.941,13.6Zm3.452,0L10.667,11.9H7.214l-.712.949a3.069,3.069,0,0,1,.906,1.812Zm7.379,2.086a2.3,2.3,0,0,0-1.625-3.927,2.364,2.364,0,0,0-.87.173l1.251,1.87a.463.463,0,0,1,.072.352.421.421,0,0,1-.194.288.426.426,0,0,1-.259.079.421.421,0,0,1-.381-.209l-1.251-1.87a2.3,2.3,0,0,0,3.258,3.244Zm.647-3.9a3.2,3.2,0,0,1,0,4.549,3.212,3.212,0,0,1-4.553,0,3.1,3.1,0,0,1-.946-2.276,3.14,3.14,0,0,1,.284-1.32,3.243,3.243,0,0,1,.788-1.075l-.468-.7L9.192,15.4a.42.42,0,0,1-.367.187H7.408a3.113,3.113,0,0,1-1.072,1.971,3.115,3.115,0,0,1-2.115.791A3.1,3.1,0,0,1,1.946,17.4a3.212,3.212,0,0,1,0-4.553A3.1,3.1,0,0,1,4.222,11.9a3.185,3.185,0,0,1,1.546.4l.985-1.316H5.143a.46.46,0,0,1,0-.921H7.9v.921h3.129l-.611-.921h-1.6a.46.46,0,0,1,0-.921h1.841a.447.447,0,0,1,.381.2l1.92,2.877a3.133,3.133,0,0,1,1.381-.316,3.086,3.086,0,0,1,2.273.949Z" transform="translate(-66 -21.889)"/></g></svg>