<svg xmlns="http://www.w3.org/2000/svg" xmlns:xlink="http://www.w3.org/1999/xlink" width="45.954" height="45.955" viewBox="0 0 45.954 45.955"><defs><style>.a{fill:#e6717c;}.b{fill:#fff;}.c{fill:rgba(0,0,0,0);}.d{clip-path:url(#a);}.e{clip-path:url(#b);}</style><clipPath id="a"><rect class="a" width="45.955" height="45.955" rx="4"/></clipPath><clipPath id="b"><path class="b" d="M12.854,30.784a1.43,1.43,0,0,1-.642-.16l-.143-.1c-4.694-3.357-7.356-4.058-8.635-4.394-.413,0-.859-.2-.859-.643-.084-.21-.175-.468-.281-.766l-.015-.042-.015-.042A16.208,16.208,0,0,0,.22,20.344a1.162,1.162,0,0,1,.428-1.713l11.778-5.353h.857l11.778,5.353a1.456,1.456,0,0,1,.646,1.03.829.829,0,0,1-.217.684,14.972,14.972,0,0,0-2.356,5.14c0,.441-.444.643-.857.643a26.875,26.875,0,0,0-8.635,4.393l-.005,0-.14.1A1.432,1.432,0,0,1,12.854,30.784Zm3-13.224a1.735,1.735,0,0,0-1.5,1.928c0,1.013.616,2.141,1.5,2.141a1.583,1.583,0,0,0,1.178-.67,2.406,2.406,0,0,0,.535-1.472,2.008,2.008,0,0,0-.535-1.365A1.638,1.638,0,0,0,15.853,17.56Zm-6,0a1.638,1.638,0,0,0-1.178.562,2.008,2.008,0,0,0-.535,1.365,2.1,2.1,0,0,0,1.713,2.141c.883,0,1.5-1.129,1.5-2.141A1.735,1.735,0,0,0,9.857,17.56ZM21.02,13.55a.538.538,0,0,1-.242-.058l-6.21-3a1.527,1.527,0,0,1-.361-.08,2.586,2.586,0,0,0-.71-.135,3.088,3.088,0,0,0-.747-.088,5.179,5.179,0,0,0-1.609.3l-6.21,3c-.413,0-.857-.2-.857-.643V10.708A1.116,1.116,0,0,1,4.5,9.853l0,0A3.4,3.4,0,0,1,7.286,8.78v-3c0-.425.216-.857.429-.857a6.782,6.782,0,0,1,3-1.071V1.071A1.148,1.148,0,0,1,11.784,0h2.141A1.148,1.148,0,0,1,15,1.071V3.855a6.79,6.79,0,0,1,3,1.071c.216,0,.428.425.428.857v3a2.883,2.883,0,0,1,2.784,1.285c.21.21.428.427.428.643v2.355A.647.647,0,0,1,21.02,13.55Z" transform="translate(0 0)"/></clipPath></defs><g transform="translate(0 0)"><rect class="c" width="45.955" height="45.955"/><rect class="a" width="45.955" height="45.955" rx="4"/><g class="d"><g transform="translate(4.787 4.787)"><rect class="c" width="36.381" height="36.381"/><path class="b" d="M12.854,30.784a1.43,1.43,0,0,1-.642-.16l-.143-.1c-4.694-3.357-7.356-4.058-8.635-4.394-.413,0-.859-.2-.859-.643-.084-.21-.175-.468-.281-.766l-.015-.042-.015-.042A16.208,16.208,0,0,0,.22,20.344a1.162,1.162,0,0,1,.428-1.713l11.778-5.353h.857l11.778,5.353a1.456,1.456,0,0,1,.646,1.03.829.829,0,0,1-.217.684,14.972,14.972,0,0,0-2.356,5.14c0,.441-.444.643-.857.643a26.875,26.875,0,0,0-8.635,4.393l-.005,0-.14.1A1.432,1.432,0,0,1,12.854,30.784Zm3-13.224a1.735,1.735,0,0,0-1.5,1.928c0,1.013.616,2.141,1.5,2.141a1.583,1.583,0,0,0,1.178-.67,2.406,2.406,0,0,0,.535-1.472,2.008,2.008,0,0,0-.535-1.365A1.638,1.638,0,0,0,15.853,17.56Zm-6,0a1.638,1.638,0,0,0-1.178.562,2.008,2.008,0,0,0-.535,1.365,2.1,2.1,0,0,0,1.713,2.141c.883,0,1.5-1.129,1.5-2.141A1.735,1.735,0,0,0,9.857,17.56ZM21.02,13.55a.538.538,0,0,1-.242-.058l-6.21-3a1.527,1.527,0,0,1-.361-.08,2.586,2.586,0,0,0-.71-.135,3.088,3.088,0,0,0-.747-.088,5.179,5.179,0,0,0-1.609.3l-6.21,3c-.413,0-.857-.2-.857-.643V10.708A1.116,1.116,0,0,1,4.5,9.853l0,0A3.4,3.4,0,0,1,7.286,8.78v-3c0-.425.216-.857.429-.857a6.782,6.782,0,0,1,3-1.071V1.071A1.148,1.148,0,0,1,11.784,0h2.141A1.148,1.148,0,0,1,15,1.071V3.855a6.79,6.79,0,0,1,3,1.071c.216,0,.428.425.428.857v3a2.883,2.883,0,0,1,2.784,1.285c.21.21.428.427.428.643v2.355A.647.647,0,0,1,21.02,13.55Z" transform="translate(5.6 2.799)"/></g></g></g></svg>