<svg xmlns="http://www.w3.org/2000/svg" width="16" height="17.984" viewBox="0 0 16 17.984"><defs><style>.a{fill:#2699fb;}</style></defs><path class="a" d="M10.657,17.984H3.582A3.3,3.3,0,0,1,.448,16.208,4.428,4.428,0,0,1,0,14.432V5.4A2.033,2.033,0,0,1,2,3.639v9.942c0,.018,0,.039,0,.064v.017a2.6,2.6,0,0,0,.581,1.9,2.413,2.413,0,0,0,1.8.622h8.057A1.752,1.752,0,0,1,10.657,17.984Zm4.231-3.934c-.109,0-.218-.009-.315-.016l-.019,0c-.086-.007-.17-.014-.24-.014H5.433L4,12.988V1.8A1.808,1.808,0,0,1,4.208.445,1.341,1.341,0,0,1,5.329,0C7.093,0,9.063.063,9.077.064a.83.83,0,0,1,.888.9V3.681a3.047,3.047,0,0,0,2.466,2.282h2.68a.882.882,0,0,1,.888.9v.005c0,.392-.014,4.009-.014,5.72C15.986,13.884,15.4,14.05,14.888,14.05ZM15.106,3.6H15.1c-.308,0-1.767,0-1.782,0-.632,0-.878-.247-.878-.882V.88c0-.509.242-.851.6-.851A.965.965,0,0,1,13.7.371c.064.058,1.666,1.853,1.869,2.141a.72.72,0,0,1,.151.749A.735.735,0,0,1,15.106,3.6Z"/></svg>