<svg xmlns="http://www.w3.org/2000/svg" width="15.999" height="15.2" viewBox="0 0 15.999 15.2"><defs><style>.a{fill:#2699fb;}</style></defs><g transform="translate(-0.001)"><path class="a" d="M12,15.2A3.965,3.965,0,1,1,16,11.235,3.989,3.989,0,0,1,12,15.2Zm-1.669-4.626c-.191,0-.3.12-.3.33v.661c0,.21.11.33.3.33h1.035v.991c0,.21.109.33.3.33h.668a.342.342,0,0,0,.367-.33V11.9h.967a.342.342,0,0,0,.367-.33V10.9a.342.342,0,0,0-.367-.33H12.7V9.583a.342.342,0,0,0-.367-.33h-.668c-.19,0-.3.12-.3.33v.991ZM7.691,15.2H2.017a1.947,1.947,0,0,1-1.543-.731,2.182,2.182,0,0,1-.426-1.814C.3,11.209,1.706,10.419,3.185,9.781L3.357,9.7,3.371,9.7c.538-.243,1.207-.546,1.417-1.138.325-.843-.454-1.655-.7-1.884a4.088,4.088,0,0,1-.9-4.395A3.323,3.323,0,0,1,6.323,0h.089A3.333,3.333,0,0,1,9.592,2.116a4.822,4.822,0,0,1-.467,4.295,6.6,6.6,0,0,1-.67.793l-.008.009-.008.008A6.545,6.545,0,0,0,7.423,8.526a5.6,5.6,0,0,0-.768,2.709,5.239,5.239,0,0,0,1.3,3.436A.306.306,0,0,1,7.992,15,.334.334,0,0,1,7.691,15.2Z"/></g></svg>